<?xml version="1.0" standalone="yes"?>
<svg xmlns="http://www.w3.org/2000/svg" width="200" height="200">
<path style="fill:#3a76f0; stroke:none;" d="M0 0L0 200L200 200L200 0L0 0z"/>
<path style="fill:#729df4; stroke:none;" d="M90.6667 31.3333C90.2222 31.7778 91.2778 31.7222 91.3333 31.6667C91.7778 31.2222 90.7222 31.2778 90.6667 31.3333z"/>
<path style="fill:#94b4f7; stroke:none;" d="M92 31C93.2484 31.6848 93.5484 31.7488 95 32C93.7517 31.3152 93.4515 31.2512 92 31z"/>
<path style="fill:#bdd1fa; stroke:none;" d="M95 31C98.6975 32.5515 103.017 32 107 32C103.303 30.4485 98.9832 31 95 31z"/>
<path style="fill:#729df4; stroke:none;" d="M107.667 31.3333C107.222 31.7778 108.278 31.7222 108.333 31.6667C108.778 31.2222 107.722 31.2778 107.667 31.3333z"/>
<path style="fill:#ffffff; stroke:none;" d="M90 32L91 38L109 38L110 32L90 32z"/>
<path style="fill:#8eb0f6; stroke:none;" d="M82.6667 33.3333C82.2222 33.7778 83.2778 33.7222 83.3333 33.6667C83.7778 33.2222 82.7222 33.2778 82.6667 33.3333z"/>
<path style="fill:#90b2f6; stroke:none;" d="M116.667 33.3333C116.222 33.7778 117.278 33.7222 117.333 33.6667C117.778 33.2222 116.722 33.2778 116.667 33.3333z"/>
<path style="fill:#c8d8fb; stroke:none;" d="M78.6667 34.3333C78.2222 34.7778 79.2778 34.7222 79.3333 34.6667C79.7778 34.2222 78.7222 34.2778 78.6667 34.3333z"/>
<path style="fill:#ffffff; stroke:none;" d="M67 46C72.7991 44.3422 78.1031 41.3974 84 40L84 34C77.0655 34.5672 64.3954 37.0903 67 46z"/>
<path style="fill:#c7d8fa; stroke:none;" d="M90 34L90 38C90.7102 36.2405 90.7102 35.7595 90 34M109 34L109 38C109.71 36.2405 109.71 35.7595 109 34z"/>
<path style="fill:#ffffff; stroke:none;" d="M116 34L116 40C121.897 41.3974 127.201 44.3422 133 46C135.605 37.0903 122.934 34.5672 116 34z"/>
<path style="fill:#94b4f6; stroke:none;" d="M120.667 34.3333C120.222 34.7778 121.278 34.7222 121.333 34.6667C121.778 34.2222 120.722 34.2778 120.667 34.3333z"/>
<path style="fill:#81a7f5; stroke:none;" d="M75 35L76 36L75 35M124 35L125 36L124 35z"/>
<path style="fill:#a0bdf7; stroke:none;" d="M73 36L74 37L73 36z"/>
<path style="fill:#a4c0f7; stroke:none;" d="M84.3333 36.6667C84.2778 36.7222 84.2222 37.7778 84.6667 37.3333C84.7223 37.2777 84.7777 36.2223 84.3333 36.6667M115.333 36.6667C115.278 36.7222 115.222 37.7778 115.667 37.3333C115.722 37.2777 115.778 36.2223 115.333 36.6667z"/>
<path style="fill:#a0bdf7; stroke:none;" d="M126 36L127 37L126 36z"/>
<path style="fill:#c1d4fa; stroke:none;" d="M71 37L72 38L71 37z"/>
<path style="fill:#e6eefd; stroke:none;" d="M97 37C99.0521 37.8742 100.747 37.9528 103 38C100.948 37.1258 99.2528 37.0472 97 37z"/>
<path style="fill:#c1d4fa; stroke:none;" d="M128 37L129 38L128 37z"/>
<path style="fill:#bdd1fa; stroke:none;" d="M69 38L70 39L69 38z"/>
<path style="fill:#cfdefb; stroke:none;" d="M84.3333 38.6667C84.2778 38.7222 84.2222 39.7778 84.6667 39.3333C84.7223 39.2777 84.7777 38.2223 84.3333 38.6667z"/>
<path style="fill:#6b98f3; stroke:none;" d="M91.6667 38.3333C91.2222 38.7778 92.2778 38.7222 92.3333 38.6667C92.7777 38.2222 91.7222 38.2778 91.6667 38.3333z"/>
<path style="fill:#5c8df2; stroke:none;" d="M105 38C106.769 38.7789 108.036 38.9124 110 39C108.231 38.2211 106.964 38.0876 105 38z"/>
<path style="fill:#cfdefb; stroke:none;" d="M115.333 38.6667C115.278 38.7222 115.222 39.7778 115.667 39.3333C115.722 39.2777 115.778 38.2223 115.333 38.6667z"/>
<path style="fill:#bdd1fa; stroke:none;" d="M130 38L131 39L130 38z"/>
<path style="fill:#92b3f6; stroke:none;" d="M65 40L66 41L65 40z"/>
<path style="fill:#86aaf5; stroke:none;" d="M81.6667 40.3333C81.2222 40.7778 82.2778 40.7222 82.3333 40.6667C82.7778 40.2222 81.7222 40.2778 81.6667 40.3333z"/>
<path style="fill:#b5cbf9; stroke:none;" d="M117.667 40.3333C117.222 40.7778 118.278 40.7222 118.333 40.6667C118.778 40.2223 117.722 40.2778 117.667 40.3333z"/>
<path style="fill:#92b3f6; stroke:none;" d="M134 40L135 41L134 40z"/>
<path style="fill:#5d8ef2; stroke:none;" d="M78.6667 41.3333C78.2222 41.7778 79.2778 41.7222 79.3333 41.6667C79.7777 41.2223 78.7223 41.2777 78.6667 41.3333z"/>
<path style="fill:#98b7f7; stroke:none;" d="M121 41L122 42L121 41z"/>
<path style="fill:#b9cef9; stroke:none;" d="M65 42L66 43L65 42M134 42L135 43L134 42z"/>
<path style="fill:#b5cbf9; stroke:none;" d="M73 43L74 44L73 43M126 43L127 44L126 43z"/>
<path style="fill:#b9cef9; stroke:none;" d="M66 44L67 45L66 44z"/>
<path style="fill:#c1d4fa; stroke:none;" d="M71 44L72 45L71 44z"/>
<path style="fill:#90b2f6; stroke:none;" d="M91.6667 44.3333C91.2222 44.7778 92.2778 44.7222 92.3333 44.6667C92.7777 44.2222 91.7222 44.2778 91.6667 44.3333z"/>
<path style="fill:#cbdafb; stroke:none;" d="M93.6667 44.3333C93.2222 44.7778 94.2778 44.7222 94.3333 44.6667C94.7778 44.2222 93.7222 44.2778 93.6667 44.3333z"/>
<path style="fill:#ffffff; stroke:none;" d="M48 152C54.6918 151.099 62.2635 147.555 69 148.012C74.6192 148.394 80.4928 152.608 86 154.076C100.287 157.886 116.27 155.469 129 147.907C136.559 143.416 143.416 136.559 147.907 129C151.887 122.3 154.049 114.616 155.385 107C156.391 101.268 155.924 95.6921 154.916 90C147.263 46.7986 92.1719 29.2829 61.0039 60.0147C56.2998 64.6528 52.0714 69.875 49.4637 76C44.0825 88.64 42.6949 101.69 46.2894 115C47.6456 120.022 51.0079 124.852 51.6829 130C52.6036 137.022 48.9346 145.059 48 152z"/>
<path style="fill:#90b2f6; stroke:none;" d="M106 44C107.248 44.6848 107.548 44.7488 109 45C107.752 44.3152 107.452 44.2512 106 44z"/>
<path style="fill:#c1d4fa; stroke:none;" d="M128 44L129 45L128 44z"/>
<path style="fill:#b9cef9; stroke:none;" d="M133 44L134 45L133 44z"/>
<path style="fill:#d6e2fb; stroke:none;" d="M58.6667 45.3333C58.2222 45.7778 59.2778 45.7222 59.3333 45.6667C59.7778 45.2222 58.7222 45.2778 58.6667 45.3333z"/>
<path style="fill:#bfd2fa; stroke:none;" d="M69 45L70 46L69 45z"/>
<path style="fill:#a0bdf7; stroke:none;" d="M86.6667 45.3333C86.2222 45.7778 87.2778 45.7222 87.3333 45.6667C87.7778 45.2222 86.7222 45.2778 86.6667 45.3333M111.667 45.3333C111.222 45.7778 112.278 45.7223 112.333 45.6667C112.778 45.2222 111.722 45.2778 111.667 45.3333z"/>
<path style="fill:#bfd2fa; stroke:none;" d="M130 45L131 46L130 45z"/>
<path style="fill:#cfddfb; stroke:none;" d="M140.667 45.3333C140.222 45.7778 141.278 45.7222 141.333 45.6667C141.778 45.2222 140.722 45.2778 140.667 45.3333z"/>
<path style="fill:#ffffff; stroke:none;" d="M49 63L63 50C56.2069 41.9583 43.6438 55.2032 49 63z"/>
<path style="fill:#b8cdf9; stroke:none;" d="M60 46L61 47L60 46z"/>
<path style="fill:#6d99f3; stroke:none;" d="M67.6667 46.3333C67.2222 46.7778 68.2778 46.7222 68.3333 46.6667C68.7777 46.2222 67.7222 46.2778 67.6667 46.3333z"/>
<path style="fill:#84a9f5; stroke:none;" d="M83 46L84 47L83 46M116 46L117 47L116 46z"/>
<path style="fill:#8aadf6; stroke:none;" d="M131.667 46.3333C131.222 46.7778 132.278 46.7222 132.333 46.6667C132.778 46.2222 131.722 46.2778 131.667 46.3333z"/>
<path style="fill:#b8cdf9; stroke:none;" d="M139 46L140 47L139 46z"/>
<path style="fill:#ffffff; stroke:none;" d="M137 49L150 63C158.042 56.2069 144.797 43.6438 137 49z"/>
<path style="fill:#8eb0f6; stroke:none;" d="M55 47L56 48L55 47z"/>
<path style="fill:#83a9f5; stroke:none;" d="M61 47L62 48L61 47z"/>
<path style="fill:#c2d5fa; stroke:none;" d="M80.6667 47.3333C80.2222 47.7778 81.2778 47.7222 81.3333 47.6667C81.7778 47.2222 80.7222 47.2778 80.6667 47.3333z"/>
<path style="fill:#88acf6; stroke:none;" d="M118.667 47.3333C118.222 47.7778 119.278 47.7222 119.333 47.6667C119.778 47.2222 118.722 47.2778 118.667 47.3333z"/>
<path style="fill:#83a9f5; stroke:none;" d="M138 47L139 48L138 47z"/>
<path style="fill:#8eb0f6; stroke:none;" d="M144 47L145 48L144 47z"/>
<path style="fill:#a6c1f8; stroke:none;" d="M54 48L55 49L54 48z"/>
<path style="fill:#afc7f9; stroke:none;" d="M78 48L79 49L78 48M121 48L122 49L121 48z"/>
<path style="fill:#a6c1f8; stroke:none;" d="M145 48L146 49L145 48z"/>
<path style="fill:#b5cbf9; stroke:none;" d="M53 49L54 50L53 49z"/>
<path style="fill:#bdd1fa; stroke:none;" d="M123 49L124 50L123 49z"/>
<path style="fill:#b5cbf9; stroke:none;" d="M146 49L147 50L146 49z"/>
<path style="fill:#7ba3f5; stroke:none;" d="M73 50L74 51L73 50M126 50L127 51L126 50z"/>
<path style="fill:#b6ccf9; stroke:none;" d="M59 52L60 53L59 52z"/>
<path style="fill:#a6c1f8; stroke:none;" d="M70 52L71 53L70 52M129 52L130 53L129 52z"/>
<path style="fill:#b6ccf9; stroke:none;" d="M140 52L141 53L140 52z"/>
<path style="fill:#b5cbf9; stroke:none;" d="M49 53L50 54L49 53z"/>
<path style="fill:#c3d5fa; stroke:none;" d="M58 53L59 54L58 53M141 53L142 54L141 53z"/>
<path style="fill:#b5cbf9; stroke:none;" d="M150 53L151 54L150 53z"/>
<path style="fill:#a6c1f8; stroke:none;" d="M48 54L49 55L48 54z"/>
<path style="fill:#b5cbf9; stroke:none;" d="M57 54L58 55L57 54z"/>
<path style="fill:#a6c1f8; stroke:none;" d="M67 54L68 55L67 54M132 54L133 55L132 54z"/>
<path style="fill:#b5cbf9; stroke:none;" d="M142 54L143 55L142 54z"/>
<path style="fill:#a6c1f8; stroke:none;" d="M151 54L152 55L151 54z"/>
<path style="fill:#8eb0f6; stroke:none;" d="M47 55L48 56L47 55z"/>
<path style="fill:#a6c1f8; stroke:none;" d="M56 55L57 56L56 55M143 55L144 56L143 55z"/>
<path style="fill:#8eb0f6; stroke:none;" d="M152 55L153 56L152 55z"/>
<path style="fill:#a6c1f8; stroke:none;" d="M55 56L56 57L55 56M144 56L145 57L144 56z"/>
<path style="fill:#b5cbf9; stroke:none;" d="M54 57L55 58L54 57M145 57L146 58L145 57z"/>
<path style="fill:#d5e2fb; stroke:none;" d="M45.3333 58.6667C45.2777 58.7223 45.2222 59.7777 45.6667 59.3333C45.7222 59.2778 45.7778 58.2222 45.3333 58.6667z"/>
<path style="fill:#c3d5fa; stroke:none;" d="M53 58L54 59L53 58z"/>
<path style="fill:#8aadf5; stroke:none;" d="M62 58L63 59L62 58M137 58L138 59L137 58z"/>
<path style="fill:#c3d5fa; stroke:none;" d="M146 58L147 59L146 58z"/>
<path style="fill:#d5e2fb; stroke:none;" d="M154.333 58.6667C154.278 58.7222 154.222 59.7778 154.667 59.3333C154.722 59.2777 154.778 58.2223 154.333 58.6667z"/>
<path style="fill:#b6ccf9; stroke:none;" d="M52 59L53 60L52 59z"/>
<path style="fill:#b3caf9; stroke:none;" d="M61 59L62 60L61 59M138 59L139 60L138 59z"/>
<path style="fill:#b6ccf9; stroke:none;" d="M147 59L148 60L147 59z"/>
<path style="fill:#b8cdf9; stroke:none;" d="M46 60L47 61L46 60z"/>
<path style="fill:#bed2f9; stroke:none;" d="M60 60L61 61L60 60M139 60L140 61L139 60z"/>
<path style="fill:#b8cdf9; stroke:none;" d="M153 60L154 61L153 60z"/>
<path style="fill:#84a9f5; stroke:none;" d="M47 61L48 62L47 61z"/>
<path style="fill:#b3caf9; stroke:none;" d="M59 61L60 62L59 61M140 61L141 62L140 61z"/>
<path style="fill:#84a9f5; stroke:none;" d="M152 61L153 62L152 61z"/>
<path style="fill:#8aadf6; stroke:none;" d="M58 62L59 63L58 62M141 62L142 63L141 62z"/>
<path style="fill:#92b3f6; stroke:none;" d="M40 65L41 66L40 65z"/>
<path style="fill:#ffffff; stroke:none;" d="M34 84L40 84C41.3974 78.1031 44.3422 72.7991 46 67C37.0903 64.3954 34.5672 77.0655 34 84z"/>
<path style="fill:#b9cef9; stroke:none;" d="M42 65L43 66L42 65M157 65L158 66L157 65z"/>
<path style="fill:#ffffff; stroke:none;" d="M154 67C155.658 72.7991 158.603 78.1031 160 84L166 84C165.433 77.0655 162.91 64.3954 154 67z"/>
<path style="fill:#92b3f6; stroke:none;" d="M159 65L160 66L159 65z"/>
<path style="fill:#b9cef9; stroke:none;" d="M44 66L45 67L44 66M155 66L156 67L155 66z"/>
<path style="fill:#6d99f4; stroke:none;" d="M46.3333 67.6667C46.2778 67.7222 46.2222 68.7778 46.6667 68.3333C46.7222 68.2778 46.7778 67.2222 46.3333 67.6667z"/>
<path style="fill:#a6c1f8; stroke:none;" d="M54 67L55 68L54 67M145 67L146 68L145 67z"/>
<path style="fill:#6d99f4; stroke:none;" d="M153.333 67.6667C153.278 67.7222 153.222 68.7778 153.667 68.3333C153.722 68.2778 153.778 67.2222 153.333 67.6667z"/>
<path style="fill:#bdd1f9; stroke:none;" d="M38 69L39 70L38 69z"/>
<path style="fill:#bfd2f9; stroke:none;" d="M45 69L46 70L45 69M154 69L155 70L154 69z"/>
<path style="fill:#bdd1f9; stroke:none;" d="M161 69L162 70L161 69z"/>
<path style="fill:#a5c1f8; stroke:none;" d="M52 70L53 71L52 70M147 70L148 71L147 70z"/>
<path style="fill:#c1d4fa; stroke:none;" d="M37 71L38 72L37 71M44 71L45 72L44 71M155 71L156 72L155 71M162 71L163 72L162 71z"/>
<path style="fill:#a0bdf7; stroke:none;" d="M36 73L37 74L36 73z"/>
<path style="fill:#b5cbf9; stroke:none;" d="M43 73L44 74L43 73z"/>
<path style="fill:#7ba3f4; stroke:none;" d="M50 73L51 74L50 73M149 73L150 74L149 73z"/>
<path style="fill:#b5cbf9; stroke:none;" d="M156 73L157 74L156 73z"/>
<path style="fill:#a0bdf7; stroke:none;" d="M163 73L164 74L163 73z"/>
<path style="fill:#82a8f5; stroke:none;" d="M35 75L36 76L35 75M164 75L165 76L164 75z"/>
<path style="fill:#c8d8fa; stroke:none;" d="M34.3333 78.6667C34.2778 78.7222 34.2222 79.7778 34.6667 79.3333C34.7222 79.2778 34.7778 78.2222 34.3333 78.6667z"/>
<path style="fill:#5d8ef2; stroke:none;" d="M41.3333 78.6667C41.2778 78.7222 41.2222 79.7778 41.6667 79.3333C41.7223 79.2777 41.7778 78.2222 41.3333 78.6667z"/>
<path style="fill:#aec7f8; stroke:none;" d="M48 78L49 79L48 78M151 78L152 79L151 78z"/>
<path style="fill:#5d8ef2; stroke:none;" d="M158.333 78.6667C158.278 78.7223 158.222 79.7777 158.667 79.3333C158.722 79.2778 158.778 78.2222 158.333 78.6667z"/>
<path style="fill:#c8d8fa; stroke:none;" d="M165.333 78.6667C165.278 78.7223 165.222 79.7777 165.667 79.3333C165.722 79.2778 165.778 78.2222 165.333 78.6667z"/>
<path style="fill:#c2d5fa; stroke:none;" d="M47.3333 80.6667C47.2778 80.7222 47.2222 81.7778 47.6667 81.3333C47.7222 81.2778 47.7778 80.2222 47.3333 80.6667M152.333 80.6667C152.278 80.7222 152.222 81.7778 152.667 81.3333C152.722 81.2778 152.778 80.2222 152.333 80.6667z"/>
<path style="fill:#85aaf5; stroke:none;" d="M40.3333 81.6667C40.2778 81.7222 40.2222 82.7778 40.6667 82.3333C40.7223 82.2777 40.7778 81.2222 40.3333 81.6667M159.333 81.6667C159.278 81.7223 159.222 82.7777 159.667 82.3333C159.722 82.2778 159.778 81.2222 159.333 81.6667z"/>
<path style="fill:#8eb0f6; stroke:none;" d="M33.3333 82.6667C33.2778 82.7222 33.2222 83.7778 33.6667 83.3333C33.7222 83.2778 33.7778 82.2222 33.3333 82.6667M166.333 82.6667C166.278 82.7222 166.222 83.7778 166.667 83.3333C166.722 83.2778 166.778 82.2222 166.333 82.6667z"/>
<path style="fill:#83a9f5; stroke:none;" d="M46 83L47 84L46 83M153 83L154 84L153 83z"/>
<path style="fill:#a4c0f8; stroke:none;" d="M36.6667 84.3333C36.2222 84.7778 37.2778 84.7222 37.3333 84.6667C37.7777 84.2223 36.7223 84.2777 36.6667 84.3333z"/>
<path style="fill:#d0defb; stroke:none;" d="M38.6667 84.3333C38.2222 84.7778 39.2778 84.7222 39.3333 84.6667C39.7777 84.2223 38.7223 84.2777 38.6667 84.3333z"/>
<path style="fill:#cddcfb; stroke:none;" d="M160 84C161.248 84.6848 161.548 84.7488 163 85C161.752 84.3152 161.452 84.2512 160 84z"/>
<path style="fill:#a0bdf7; stroke:none;" d="M45.3333 86.6667C45.2778 86.7222 45.2222 87.7778 45.6667 87.3333C45.7222 87.2778 45.7778 86.2222 45.3333 86.6667M154.333 86.6667C154.278 86.7223 154.222 87.7778 154.667 87.3333C154.722 87.2778 154.778 86.2222 154.333 86.6667z"/>
<path style="fill:#719cf4; stroke:none;" d="M31.3333 90.6667C31.2778 90.7222 31.2222 91.7778 31.6667 91.3333C31.7222 91.2778 31.7778 90.2222 31.3333 90.6667z"/>
<path style="fill:#ffffff; stroke:none;" d="M32 90L32 110L38 109L38 91L32 90z"/>
<path style="fill:#c7d8fa; stroke:none;" d="M34 90C35.5061 90.683 36.3148 90.8259 38 91C36.494 90.317 35.6852 90.1741 34 90z"/>
<path style="fill:#aec7f8; stroke:none;" d="M162.667 90.3333C162.222 90.7777 163.278 90.7222 163.333 90.6667C163.778 90.2222 162.722 90.2778 162.667 90.3333z"/>
<path style="fill:#ffffff; stroke:none;" d="M168 110L168 90C161.21 90.7816 162.66 94.4483 162.66 100C162.66 105.552 161.21 109.218 168 110z"/>
<path style="fill:#6b98f3; stroke:none;" d="M38.3333 91.6667C38.2778 91.7222 38.2222 92.7778 38.6667 92.3333C38.7222 92.2778 38.7778 91.2222 38.3333 91.6667z"/>
<path style="fill:#90b1f6; stroke:none;" d="M44.3333 91.6667C44.2778 91.7222 44.2222 92.7778 44.6667 92.3333C44.7222 92.2778 44.7778 91.2222 44.3333 91.6667M155 91L155 94C155.696 92.4463 155.696 92.5537 155 91z"/>
<path style="fill:#6b98f3; stroke:none;" d="M161.333 91.6667C161.278 91.7222 161.222 92.7778 161.667 92.3333C161.722 92.2778 161.778 91.2222 161.333 91.6667z"/>
<path style="fill:#a0bdf7; stroke:none;" d="M168 91L168 95C168.71 93.2405 168.71 92.7595 168 91z"/>
<path style="fill:#94b4f6; stroke:none;" d="M31 92L31 95C31.6961 93.4463 31.6961 93.5537 31 92z"/>
<path style="fill:#cbdafb; stroke:none;" d="M44.3333 93.6667C44.2778 93.7222 44.2222 94.7778 44.6667 94.3333C44.7222 94.2778 44.7778 93.2222 44.3333 93.6667z"/>
<path style="fill:#bdd1fa; stroke:none;" d="M31 95L31 107C32.5124 103.396 32.5124 98.6043 31 95M168 95L168 107C169.512 103.396 169.512 98.6043 168 95z"/>
<path style="fill:#e6eefd; stroke:none;" d="M37 97L37 103C37.9511 100.715 37.9511 99.2853 37 97M162 97L162 103C162.951 100.715 162.951 99.2853 162 97z"/>
<path style="fill:#5c8df2; stroke:none;" d="M38 105L38 110C38.8299 107.97 38.8299 107.03 38 105z"/>
<path style="fill:#90b1f6; stroke:none;" d="M44 106L44 109C44.6961 107.446 44.6961 107.554 44 106M155 106L155 109C155.696 107.446 155.696 107.554 155 106z"/>
<path style="fill:#6d99f3; stroke:none;" d="M161 106L161 110C161.71 108.241 161.71 107.759 161 106z"/>
<path style="fill:#719cf4; stroke:none;" d="M31.3333 107.667C31.2778 107.722 31.2222 108.778 31.6667 108.333C31.7222 108.278 31.7778 107.222 31.3333 107.667M168.333 107.667C168.278 107.722 168.222 108.778 168.667 108.333C168.722 108.278 168.778 107.222 168.333 107.667z"/>
<path style="fill:#c7d8fa; stroke:none;" d="M34 109C35.5061 109.683 36.3148 109.826 38 110C36.494 109.317 35.6852 109.174 34 109z"/>
<path style="fill:#aec7f8; stroke:none;" d="M162.667 109.333C162.222 109.778 163.278 109.722 163.333 109.667C163.778 109.222 162.722 109.278 162.667 109.333z"/>
<path style="fill:#a0bdf7; stroke:none;" d="M45.3333 111.667C45.2778 111.722 45.2222 112.778 45.6667 112.333C45.7222 112.278 45.7778 111.222 45.3333 111.667M154.333 111.667C154.278 111.722 154.222 112.778 154.667 112.333C154.722 112.278 154.778 111.222 154.333 111.667z"/>
<path style="fill:#a4c0f8; stroke:none;" d="M36.6667 115.333C36.2222 115.778 37.2778 115.722 37.3333 115.667C37.7777 115.222 36.7222 115.278 36.6667 115.333z"/>
<path style="fill:#d0defb; stroke:none;" d="M38.6667 115.333C38.2222 115.778 39.2778 115.722 39.3333 115.667C39.7777 115.222 38.7222 115.278 38.6667 115.333z"/>
<path style="fill:#cddcfb; stroke:none;" d="M160 115C161.248 115.685 161.548 115.749 163 116C161.752 115.315 161.452 115.251 160 115z"/>
<path style="fill:#90b1f6; stroke:none;" d="M33.3333 116.667C33.2778 116.722 33.2222 117.778 33.6667 117.333C33.7222 117.278 33.7778 116.222 33.3333 116.667z"/>
<path style="fill:#ffffff; stroke:none;" d="M34 116C34.6998 124.556 39.1024 131.25 39 140L44 141C47.0416 131.378 42.1684 125.15 40 116L34 116z"/>
<path style="fill:#7fa6f5; stroke:none;" d="M46 116L47 117L46 116z"/>
<path style="fill:#83a9f5; stroke:none;" d="M153 116L154 117L153 116z"/>
<path style="fill:#ffffff; stroke:none;" d="M160 116C158.603 121.897 155.658 127.201 154 133C162.91 135.605 165.433 122.934 166 116L160 116z"/>
<path style="fill:#90b1f6; stroke:none;" d="M166.333 116.667C166.278 116.722 166.222 117.778 166.667 117.333C166.722 117.278 166.778 116.222 166.333 116.667z"/>
<path style="fill:#b4cbf9; stroke:none;" d="M40.3333 117.667C40.2778 117.722 40.2222 118.778 40.6667 118.333C40.7222 118.278 40.7778 117.222 40.3333 117.667M159.333 117.667C159.278 117.722 159.222 118.778 159.667 118.333C159.722 118.278 159.778 117.222 159.333 117.667z"/>
<path style="fill:#85abf5; stroke:none;" d="M47.3333 118.667C47.2778 118.722 47.2222 119.778 47.6667 119.333C47.7222 119.278 47.7778 118.222 47.3333 118.667z"/>
<path style="fill:#87acf6; stroke:none;" d="M152.333 118.667C152.278 118.722 152.222 119.778 152.667 119.333C152.722 119.278 152.778 118.222 152.333 118.667z"/>
<path style="fill:#94b4f6; stroke:none;" d="M34.3333 120.667C34.2778 120.722 34.2222 121.778 34.6667 121.333C34.7222 121.278 34.7778 120.222 34.3333 120.667M165.333 120.667C165.278 120.722 165.222 121.778 165.667 121.333C165.722 121.278 165.778 120.222 165.333 120.667z"/>
<path style="fill:#98b7f7; stroke:none;" d="M41 121L42 122L41 121z"/>
<path style="fill:#aec7f8; stroke:none;" d="M48 121L49 122L48 121M151 121L152 122L151 121z"/>
<path style="fill:#98b7f7; stroke:none;" d="M158 121L159 122L158 121z"/>
<path style="fill:#bdd1f9; stroke:none;" d="M49 123L50 124L49 123M150 123L151 124L150 123z"/>
<path style="fill:#82a8f5; stroke:none;" d="M35 124L36 125L35 124M164 124L165 125L164 124z"/>
<path style="fill:#9ebcf7; stroke:none;" d="M36 126L37 127L36 126z"/>
<path style="fill:#b5cbf9; stroke:none;" d="M43 126L44 127L43 126z"/>
<path style="fill:#7ba3f4; stroke:none;" d="M50 126L51 127L50 126M149 126L150 127L149 126z"/>
<path style="fill:#b5cbf9; stroke:none;" d="M156 126L157 127L156 126z"/>
<path style="fill:#a0bdf7; stroke:none;" d="M163 126L164 127L163 126z"/>
<path style="fill:#bed2f9; stroke:none;" d="M37 128L38 129L37 128z"/>
<path style="fill:#c1d4fa; stroke:none;" d="M44 128L45 129L44 128M155 128L156 129L155 128M162 128L163 129L162 128z"/>
<path style="fill:#a6c1f7; stroke:none;" d="M52.3333 129.667C52.2778 129.722 52.2222 130.778 52.6667 130.333C52.7223 130.278 52.7778 129.222 52.3333 129.667z"/>
<path style="fill:#a5c1f8; stroke:none;" d="M147 129L148 130L147 129z"/>
<path style="fill:#bdd1f9; stroke:none;" d="M38 130L39 131L38 130z"/>
<path style="fill:#bfd2f9; stroke:none;" d="M45 130L46 131L45 130M154 130L155 131L154 130z"/>
<path style="fill:#bdd1f9; stroke:none;" d="M161 130L162 131L161 130z"/>
<path style="fill:#81a7f5; stroke:none;" d="M46.3333 131.667C46.2778 131.722 46.2222 132.778 46.6667 132.333C46.7222 132.278 46.7778 131.222 46.3333 131.667z"/>
<path style="fill:#89adf6; stroke:none;" d="M153.333 131.667C153.278 131.722 153.222 132.778 153.667 132.333C153.722 132.278 153.778 131.222 153.333 131.667z"/>
<path style="fill:#a6c1f8; stroke:none;" d="M39.3333 132.667C39.2778 132.722 39.2222 133.778 39.6667 133.333C39.7222 133.278 39.7778 132.222 39.3333 132.667M145 132L146 133L145 132z"/>
<path style="fill:#b9cef9; stroke:none;" d="M155 133L156 134L155 133z"/>
<path style="fill:#b5cbf9; stroke:none;" d="M45.3333 134.667C45.2778 134.722 45.2222 135.778 45.6667 135.333C45.7222 135.278 45.7778 134.222 45.3333 134.667z"/>
<path style="fill:#b9cef9; stroke:none;" d="M157 134L158 135L157 134z"/>
<path style="fill:#92b3f6; stroke:none;" d="M159 134L160 135L159 134z"/>
<path style="fill:#a0bdf7; stroke:none;" d="M38.3333 136.667C38.2778 136.722 38.2222 137.778 38.6667 137.333C38.7222 137.278 38.7778 136.222 38.3333 136.667z"/>
<path style="fill:#6795f3; stroke:none;" d="M45.3333 136.667C45.2778 136.722 45.2222 137.778 45.6667 137.333C45.7222 137.278 45.7778 136.222 45.3333 136.667z"/>
<path style="fill:#99b8f7; stroke:none;" d="M50 137L50 140C50.6961 138.446 50.6961 138.554 50 137z"/>
<path style="fill:#8aadf6; stroke:none;" d="M141 137L142 138L141 137z"/>
<path style="fill:#ffffff; stroke:none;" d="M150 137C146.045 141.856 141.856 146.045 137 150C143.768 158.012 158.012 143.768 150 137z"/>
<path style="fill:#dee8fc; stroke:none;" d="M38.3333 138.667C38.2778 138.722 38.2222 139.778 38.6667 139.333C38.7222 139.278 38.7778 138.222 38.3333 138.667z"/>
<path style="fill:#b3caf9; stroke:none;" d="M140 138L141 139L140 138z"/>
<path style="fill:#84a9f5; stroke:none;" d="M152 138L153 139L152 138z"/>
<path style="fill:#bed2f9; stroke:none;" d="M139 139L140 140L139 139z"/>
<path style="fill:#b8cdf9; stroke:none;" d="M153 139L154 140L153 139z"/>
<path style="fill:#adc6f8; stroke:none;" d="M40.6667 140.333C40.2222 140.778 41.2778 140.722 41.3333 140.667C41.7778 140.222 40.7222 140.278 40.6667 140.333z"/>
<path style="fill:#96b6f7; stroke:none;" d="M44 140L45 141L44 140z"/>
<path style="fill:#b3caf9; stroke:none;" d="M138 140L139 141L138 140z"/>
<path style="fill:#b6ccf9; stroke:none;" d="M147 140L148 141L147 140z"/>
<path style="fill:#cfddfb; stroke:none;" d="M154.333 140.667C154.278 140.722 154.222 141.778 154.667 141.333C154.722 141.278 154.778 140.222 154.333 140.667z"/>
<path style="fill:#8aadf5; stroke:none;" d="M137 141L138 142L137 141z"/>
<path style="fill:#c3d5fa; stroke:none;" d="M146 141L147 142L146 141z"/>
<path style="fill:#9cbaf7; stroke:none;" d="M49 142L49 145C49.6961 143.446 49.6961 143.554 49 142z"/>
<path style="fill:#b5cbf9; stroke:none;" d="M145 142L146 143L145 142z"/>
<path style="fill:#a6c1f8; stroke:none;" d="M144 143L145 144L144 143M143 144L144 145L143 144z"/>
<path style="fill:#8eb0f6; stroke:none;" d="M152 144L153 145L152 144z"/>
<path style="fill:#9cbaf7; stroke:none;" d="M36 147L39 146C37.2218 145.045 36.9786 145.234 36 147z"/>
<path style="fill:#a6c1f8; stroke:none;" d="M132 145L133 146L132 145z"/>
<path style="fill:#b5cbf9; stroke:none;" d="M142 145L143 146L142 145z"/>
<path style="fill:#a6c1f8; stroke:none;" d="M151 145L152 146L151 145z"/>
<path style="fill:#ffffff; stroke:none;" d="M53 157C48.6444 157.999 44.4402 159.402 40 160C40.5765 155.536 41.6383 151.287 43 147C41.2067 146.627 39.2053 145.937 37.5093 147.068C33.8304 149.522 32.448 161.243 35.6034 164.397C38.6696 167.461 50.4995 165.949 52.9321 162.441C54.0791 160.786 53.3658 158.758 53 157z"/>
<path style="fill:#6594f3; stroke:none;" d="M41.6667 146.333C41.2222 146.778 42.2778 146.722 42.3333 146.667C42.7778 146.222 41.7222 146.278 41.6667 146.333z"/>
<path style="fill:#c3d5fa; stroke:none;" d="M141 146L142 147L141 146z"/>
<path style="fill:#b5cbf9; stroke:none;" d="M150 146L151 147L150 146z"/>
<path style="fill:#c1d4fa; stroke:none;" d="M48.3333 147.667C48.2778 147.722 48.2222 148.778 48.6667 148.333C48.7222 148.278 48.7778 147.222 48.3333 147.667z"/>
<path style="fill:#a6c1f8; stroke:none;" d="M68 147C69.2484 147.685 69.5484 147.749 71 148C69.7516 147.315 69.4516 147.251 68 147M129 147L130 148L129 147z"/>
<path style="fill:#b6ccf9; stroke:none;" d="M140 147L141 148L140 147z"/>
<path style="fill:#719cf4; stroke:none;" d="M42.3333 148.667C42.2778 148.722 42.2222 149.778 42.6667 149.333C42.7222 149.278 42.7778 148.222 42.3333 148.667z"/>
<path style="fill:#a9c3f8; stroke:none;" d="M65 148L66 149L65 148z"/>
<path style="fill:#7da5f5; stroke:none;" d="M35 149L36 150L35 149z"/>
<path style="fill:#99b8f7; stroke:none;" d="M60 149C61.2483 149.685 61.5484 149.749 63 150C61.7516 149.315 61.4516 149.251 60 149z"/>
<path style="fill:#7ba3f5; stroke:none;" d="M73 149L74 150L73 149M126 149L127 150L126 149z"/>
<path style="fill:#8caff6; stroke:none;" d="M47 150C47.4825 152.364 47.636 152.518 50 153C49.0275 151.73 48.2699 150.973 47 150z"/>
<path style="fill:#9cbaf7; stroke:none;" d="M55.6667 150.333C55.2222 150.778 56.2778 150.722 56.3333 150.667C56.7778 150.222 55.7222 150.278 55.6667 150.333z"/>
<path style="fill:#bdd1fa; stroke:none;" d="M123 150L124 151L123 150z"/>
<path style="fill:#b5cbf9; stroke:none;" d="M146 150L147 151L146 150z"/>
<path style="fill:#aac3f8; stroke:none;" d="M41.3333 151.667C41.2778 151.722 41.2222 152.778 41.6667 152.333C41.7222 152.278 41.7778 151.222 41.3333 151.667z"/>
<path style="fill:#8aadf5; stroke:none;" d="M51.6667 151.333C51.2222 151.778 52.2778 151.722 52.3333 151.667C52.7778 151.222 51.7222 151.278 51.6667 151.333z"/>
<path style="fill:#afc7f9; stroke:none;" d="M78 151L79 152L78 151M121 151L122 152L121 151z"/>
<path style="fill:#a6c1f8; stroke:none;" d="M145 151L146 152L145 151z"/>
<path style="fill:#bfd3fa; stroke:none;" d="M80.6667 152.333C80.2222 152.778 81.2778 152.722 81.3333 152.667C81.7778 152.222 80.7222 152.278 80.6667 152.333z"/>
<path style="fill:#88acf6; stroke:none;" d="M118.667 152.333C118.222 152.778 119.278 152.722 119.333 152.667C119.778 152.222 118.722 152.278 118.667 152.333z"/>
<path style="fill:#83a9f5; stroke:none;" d="M138 152L139 153L138 152z"/>
<path style="fill:#8eb0f6; stroke:none;" d="M144 152L145 153L144 152z"/>
<path style="fill:#aac3f8; stroke:none;" d="M34.3333 153.667C34.2778 153.722 34.2222 154.778 34.6667 154.333C34.7222 154.278 34.7778 153.222 34.3333 153.667z"/>
<path style="fill:#5d8ef2; stroke:none;" d="M41.3333 153.667C41.2778 153.722 41.2222 154.778 41.6667 154.333C41.7222 154.278 41.7778 153.222 41.3333 153.667z"/>
<path style="fill:#6997f3; stroke:none;" d="M67.6667 153.333C67.2222 153.778 68.2778 153.722 68.3333 153.667C68.7778 153.222 67.7222 153.278 67.6667 153.333z"/>
<path style="fill:#7fa6f5; stroke:none;" d="M83 153L84 154L83 153z"/>
<path style="fill:#82a8f5; stroke:none;" d="M116 153L117 154L116 153z"/>
<path style="fill:#8aadf6; stroke:none;" d="M131.667 153.333C131.222 153.778 132.278 153.722 132.333 153.667C132.778 153.222 131.722 153.278 131.667 153.333z"/>
<path style="fill:#b8cdf9; stroke:none;" d="M139 153L140 154L139 153z"/>
<path style="fill:#8db0f6; stroke:none;" d="M62.6667 154.333C62.2222 154.778 63.2778 154.722 63.3333 154.667C63.7778 154.222 62.7222 154.278 62.6667 154.333z"/>
<path style="fill:#dae5fc; stroke:none;" d="M64.6667 154.333C64.2222 154.778 65.2778 154.722 65.3333 154.667C65.7778 154.222 64.7222 154.278 64.6667 154.333z"/>
<path style="fill:#ffffff; stroke:none;" d="M59 156L60 161C68.75 160.898 75.4438 165.3 84 166L84 160C74.6137 157.776 68.8791 153.445 59 156z"/>
<path style="fill:#bfd2fa; stroke:none;" d="M69 154L70 155L69 154z"/>
<path style="fill:#a0bdf7; stroke:none;" d="M86.6667 154.333C86.2222 154.778 87.2778 154.722 87.3333 154.667C87.7778 154.222 86.7222 154.278 86.6667 154.333M111.667 154.333C111.222 154.778 112.278 154.722 112.333 154.667C112.778 154.222 111.722 154.278 111.667 154.333z"/>
<path style="fill:#bfd2fa; stroke:none;" d="M130 154L131 155L130 154z"/>
<path style="fill:#ffffff; stroke:none;" d="M116 160L116 166C122.934 165.433 135.605 162.91 133 154C127.201 155.658 121.897 158.603 116 160z"/>
<path style="fill:#cfddfb; stroke:none;" d="M140.667 154.333C140.222 154.778 141.278 154.722 141.333 154.667C141.778 154.222 140.722 154.278 140.667 154.333z"/>
<path style="fill:#d1dffb; stroke:none;" d="M59.6667 155.333C59.2222 155.778 60.2778 155.722 60.3333 155.667C60.7778 155.222 59.7222 155.278 59.6667 155.333z"/>
<path style="fill:#c1d4fa; stroke:none;" d="M71 155L72 156L71 155z"/>
<path style="fill:#90b2f6; stroke:none;" d="M91 155C92.2484 155.685 92.5484 155.749 94 156C92.7517 155.315 92.4516 155.251 91 155M106 155C107.248 155.685 107.548 155.749 109 156C107.752 155.315 107.452 155.251 106 155z"/>
<path style="fill:#c1d4fa; stroke:none;" d="M128 155L129 156L128 155z"/>
<path style="fill:#b9cef9; stroke:none;" d="M133 155L134 156L133 155z"/>
<path style="fill:#b1c8f8; stroke:none;" d="M40.3333 156.667C40.2778 156.722 40.2222 157.778 40.6667 157.333C40.7222 157.278 40.7778 156.222 40.3333 156.667z"/>
<path style="fill:#b5cbf9; stroke:none;" d="M73 156L74 157L73 156M126 156L127 157L126 156z"/>
<path style="fill:#acc5f8; stroke:none;" d="M59.3333 157.667C59.2778 157.722 59.2222 158.778 59.6667 158.333C59.7222 158.278 59.7778 157.222 59.3333 157.667z"/>
<path style="fill:#b9cef9; stroke:none;" d="M134 157L135 158L134 157z"/>
<path style="fill:#9dbbf7; stroke:none;" d="M33 158L33 162C33.7102 160.241 33.7102 159.759 33 158z"/>
<path style="fill:#7aa2f4; stroke:none;" d="M40 158L40 160L42 160C41.4549 158.365 41.6352 158.545 40 158z"/>
<path style="fill:#aac4f8; stroke:none;" d="M46.6667 158.333C46.2222 158.778 47.2778 158.722 47.3333 158.667C47.7778 158.222 46.7222 158.278 46.6667 158.333z"/>
<path style="fill:#9ebbf7; stroke:none;" d="M53 158L54 159L53 158z"/>
<path style="fill:#5d8ef2; stroke:none;" d="M78.6667 158.333C78.2222 158.778 79.2778 158.722 79.3333 158.667C79.7778 158.222 78.7222 158.278 78.6667 158.333z"/>
<path style="fill:#98b7f7; stroke:none;" d="M121 158L122 159L121 158z"/>
<path style="fill:#d6e2fb; stroke:none;" d="M42.6667 159.333C42.2222 159.778 43.2778 159.722 43.3333 159.667C43.7778 159.222 42.7222 159.278 42.6667 159.333z"/>
<path style="fill:#86aaf5; stroke:none;" d="M81.6667 159.333C81.2222 159.778 82.2778 159.722 82.3333 159.667C82.7778 159.222 81.7222 159.278 81.6667 159.333z"/>
<path style="fill:#b5cbf9; stroke:none;" d="M117.667 159.333C117.222 159.778 118.278 159.722 118.333 159.667C118.778 159.222 117.722 159.278 117.667 159.333z"/>
<path style="fill:#92b3f6; stroke:none;" d="M134 159L135 160L134 159z"/>
<path style="fill:#c1d4fa; stroke:none;" d="M66.6667 160.333C66.2222 160.778 67.2778 160.722 67.3333 160.667C67.7778 160.222 66.7222 160.278 66.6667 160.333z"/>
<path style="fill:#cddcfb; stroke:none;" d="M84 160L84 163C84.6961 161.446 84.6961 161.554 84 160M115 160L115 163C115.696 161.446 115.696 161.554 115 160z"/>
<path style="fill:#b9cef9; stroke:none;" d="M54 161L53 164C54.7662 163.021 54.9555 162.778 54 161z"/>
<path style="fill:#c7d8fa; stroke:none;" d="M60.6667 161.333C60.2222 161.778 61.2778 161.722 61.3333 161.667C61.7778 161.222 60.7222 161.278 60.6667 161.333z"/>
<path style="fill:#7aa2f4; stroke:none;" d="M62.6667 161.333C62.2222 161.778 63.2778 161.722 63.3333 161.667C63.7778 161.222 62.7222 161.278 62.6667 161.333z"/>
<path style="fill:#bdd1fa; stroke:none;" d="M69 161L70 162L69 161z"/>
<path style="fill:#6d99f3; stroke:none;" d="M91.6667 161.333C91.2222 161.778 92.2778 161.722 92.3333 161.667C92.7778 161.222 91.7222 161.278 91.6667 161.333M106 161C107.506 161.683 108.315 161.826 110 162C108.494 161.317 107.685 161.174 106 161z"/>
<path style="fill:#bdd1fa; stroke:none;" d="M130 161L131 162L130 161z"/>
<path style="fill:#bed2fa; stroke:none;" d="M71 162L72 163L71 162z"/>
<path style="fill:#aec6f8; stroke:none;" d="M90.3333 162.667C90.2778 162.722 90.2222 163.778 90.6667 163.333C90.7222 163.278 90.7778 162.222 90.3333 162.667z"/>
<path style="fill:#ffffff; stroke:none;" d="M90 168L110 168C109.218 161.21 105.552 162.66 100 162.66C94.4483 162.66 90.7816 161.21 90 168z"/>
<path style="fill:#e6eefd; stroke:none;" d="M97 162C99.0521 162.874 100.747 162.953 103 163C100.948 162.126 99.2528 162.047 97 162z"/>
<path style="fill:#aec6f8; stroke:none;" d="M109.333 162.667C109.278 162.722 109.222 163.778 109.667 163.333C109.722 163.278 109.778 162.222 109.333 162.667z"/>
<path style="fill:#c1d4fa; stroke:none;" d="M128 162L129 163L128 162z"/>
<path style="fill:#9ebcf7; stroke:none;" d="M73 163L74 164L73 163z"/>
<path style="fill:#a0bdf7; stroke:none;" d="M126 163L127 164L126 163z"/>
<path style="fill:#c1d4fa; stroke:none;" d="M49 164L50 165L49 164z"/>
<path style="fill:#81a7f5; stroke:none;" d="M75 164L76 165L75 164M124 164L125 165L124 164z"/>
<path style="fill:#aac4f8; stroke:none;" d="M44.6667 165.333C44.2222 165.778 45.2778 165.722 45.3333 165.667C45.7778 165.222 44.7222 165.278 44.6667 165.333z"/>
<path style="fill:#5d8ef2; stroke:none;" d="M46.6667 165.333C46.2222 165.778 47.2778 165.722 47.3333 165.667C47.7778 165.222 46.7222 165.278 46.6667 165.333z"/>
<path style="fill:#c7d7fb; stroke:none;" d="M78.6667 165.333C78.2222 165.778 79.2778 165.722 79.3333 165.667C79.7778 165.222 78.7222 165.278 78.6667 165.333z"/>
<path style="fill:#94b4f6; stroke:none;" d="M120.667 165.333C120.222 165.778 121.278 165.722 121.333 165.667C121.778 165.222 120.722 165.278 120.667 165.333z"/>
<path style="fill:#9cbaf7; stroke:none;" d="M38 166C39.506 166.683 40.3148 166.826 42 167C40.4939 166.317 39.6852 166.174 38 166z"/>
<path style="fill:#8eb0f6; stroke:none;" d="M82.6667 166.333C82.2222 166.778 83.2778 166.722 83.3333 166.667C83.7778 166.222 82.7222 166.278 82.6667 166.333z"/>
<path style="fill:#90b2f6; stroke:none;" d="M116.667 166.333C116.222 166.778 117.278 166.722 117.333 166.667C117.778 166.222 116.722 166.278 116.667 166.333z"/>
<path style="fill:#a0bdf7; stroke:none;" d="M91 168C92.5061 168.683 93.3148 168.826 95 169C93.494 168.317 92.6852 168.174 91 168z"/>
<path style="fill:#bdd1fa; stroke:none;" d="M95 168C98.6975 169.552 103.017 169 107 169C103.303 167.448 98.9832 168 95 168z"/>
<path style="fill:#729df4; stroke:none;" d="M107.667 168.333C107.222 168.778 108.278 168.722 108.333 168.667C108.778 168.222 107.722 168.278 107.667 168.333z"/>
</svg>
